<svg xmlns="http://www.w3.org/2000/svg" width="24" height="24" viewBox="0 0 24 24">
    <g fill="#000" fill-rule="nonzero">
        <path d="M21.5 1h-19A2.503 2.503 0 0 0 0 3.5v17C0 21.878 1.122 23 2.5 23h19c1.378 0 2.5-1.122 2.5-2.5v-17C24 2.122 22.878 1 21.5 1zm-19 1h19c.827 0 1.5.673 1.5 1.5V5H1V3.5C1 2.673 1.673 2 2.5 2zm19 20h-19c-.827 0-1.5-.673-1.5-1.5V6h22v14.5c0 .827-.673 1.5-1.5 1.5z"/>
        <circle cx="3.5" cy="3.5" r="1"/>
        <circle cx="5.5" cy="3.5" r="1"/>
        <circle cx="7.5" cy="3.5" r="1"/>
    </g>
</svg>
