<svg xmlns="http://www.w3.org/2000/svg" width="22" height="22" viewBox="0 0 22 22">
    <g fill="#000" fill-rule="nonzero">
        <path d="M19.25 21.021H2.75C1.991 21.021 1 20.01 1 19.25V2.75c0-.759.991-1.736 1.75-1.736h16.5c.759 0 1.77.977 1.77 1.736v16.5c0 .759-1.011 1.771-1.77 1.771zM2.75 0A2.75 2.75 0 0 0 0 2.75v16.5A2.75 2.75 0 0 0 2.75 22h16.5A2.75 2.75 0 0 0 22 19.25V2.75A2.75 2.75 0 0 0 19.25 0H2.75z"/>
        <path d="M7 4H4v3H3V3h4v1zm11 3V4h-3V3h4v4h-1zm-3 11h3v-3h1v4h-4v-1zM4 15v3h3v1H3v-4h1z"/>
    </g>
</svg>
