<svg xmlns="http://www.w3.org/2000/svg" width="24" height="24" viewBox="0 0 24 24">
    <path fill="#000" fill-rule="nonzero" d="M5.75 7a1.25 1.25 0 1 1 2.5 0 1.25 1.25 0 0 1-2.5 0zM4.5 7a2.5 2.5 0 1 0 5 0 2.5 2.5 0 0 0-5 0zM17 8.875l-6.213 6.32-2.537-2.57-5.287 4.586V4.5c0-.69.847-1.53 1.537-1.53h15c.69 0 1.503.84 1.503 1.53v8.205L17 8.875zm2.5 12.114h-3.23l-4.605-4.905L17 10.75l4.003 3.75V19.5c0 .69-.813 1.489-1.503 1.489zM3.25 19.5v-.587l4.966-4.447 6.285 6.523H4.5c-.69 0-1.25-.799-1.25-1.489zM4.5 2A2.5 2.5 0 0 0 2 4.5v15A2.5 2.5 0 0 0 4.5 22h15a2.5 2.5 0 0 0 2.5-2.5v-15A2.5 2.5 0 0 0 19.5 2h-15z"/>
</svg>
